:version 1.10
:name ASF
:units
  mass 1
  length 1
  angle deg
:documentation
  ASF file generated by Kaydara
:root
  axis xyz
  order  tx ty tz rx ry rz
  position 0 0 0
  orientation 0 0 0
:bonedata
  begin
    id 1
    name RightUpLegDummy
    direction -1 2.30186e-007 8.31532e-007
    length 4.04083
    axis 0 0 0 xyz
  end
  begin
    id 2
    name RightUpLeg
    direction -0.000919234 -0.999985 0.00544864
    length 17.4221
    axis -3.80308 -0.00076134 -0.0523649 xyz
    dof rx ry rz
  end
  begin
    id 3
    name RightLeg
    direction -0.000919271 -0.999984 -0.00555045
    length 17.1239
    axis 4.00314 0.0181274 -0.183583 xyz
    dof rx ry rz
  end
  begin
    id 4
    name RightFoot
    direction -2.57843e-005 -4.04509e-007 1
    length 6.72091
    axis 8.18909e-005 -0.122003 -0.403008 xyz
    dof rx ry rz
  end
  begin
    id 5
    name RightToes
    direction 0.00116825 -0.014069 0.9999
    length 3.85082
    axis 0.000514414 0.540638 -0.356797 xyz
    dof rx ry rz
  end
  begin
    id 6
    name SpineDummy
    direction 0.0168869 0.966876 -0.254689
    length 6.99894
    axis 0 0 0 xyz
  end
  begin
    id 7
    name Spine
    direction -0.0132008 0.999903 0.00446247
    length 11.1999
    axis -0.00148109 0.00725429 0.756411 xyz
    dof rx ry rz
  end
  begin
    id 8
    name Spine1
    direction 0 0 0
    length 0
    axis -0.000934958 0.0245693 1.46543 xyz
    dof rx ry rz
  end
  begin
    id 9
    name HEadDummy
    direction -0.0255732 0.999672 0.00128215
    length 3.43865
    axis -0.000934958 0.0245693 1.46543 xyz
  end
  begin
    id 10
    name HEad
    direction -0.0472656 0.980052 0.19304
    length 5.12695
    axis -0.000934954 0.0245693 1.46543 xyz
    dof rx ry rz
  end
  begin
    id 11
    name LeftShoulder1Dummy
    direction 0.953098 0.301717 -0.023914
    length 3.68488
    axis -0.000934958 0.0245693 1.46543 xyz
  end
  begin
    id 12
    name LeftShoulder1
    direction 0.962466 0.271167 0.0112566
    length 3.13809
    axis -0.000934958 0.0245693 1.46543 xyz
    dof rx ry rz
  end
  begin
    id 13
    name LeftArm
    direction 0.999943 0.00455037 -0.00961766
    length 11.3419
    axis -23.1648 0.685459 1.22814 xyz
    dof rx ry rz
  end
  begin
    id 14
    name LeftForeArm
    direction 0.999332 0.0131969 0.0340885
    length 8.70632
    axis -9.90633 0.618216 0.0826942 xyz
    dof rx ry rz
  end
  begin
    id 15
    name LeftHand
    direction 0.994373 -0.0366703 0.0993905
    length 5.32135
    axis 0.00675269 0.680415 0.445699 xyz
    dof rx ry rz
  end
  begin
    id 16
    name RightShoulderDummy
    direction -0.967298 0.252589 -0.0230903
    length 3.68488
    axis -0.000934958 0.0245693 1.46543 xyz
  end
  begin
    id 17
    name RightShoulder
    direction -0.975062 0.221602 0.0120823
    length 3.13809
    axis 0.216257 0.0246515 1.45863 xyz
    dof rx ry rz
  end
  begin
    id 18
    name RightArm
    direction -0.99886 -0.00851186 -0.0469687
    length 10.3947
    axis -23.196 0.23503 -0.532632 xyz
    dof rx ry rz
  end
  begin
    id 19
    name RightForeArm
    direction -0.99909 0.00114866 0.0426317
    length 8.68355
    axis -9.91764 -0.134943 0.610517 xyz
    dof rx ry rz
  end
  begin
    id 20
    name RightHand
    direction -0.992888 -0.0489538 0.10852
    length 5.28593
    axis -0.00275396 -0.197403 0.246414 xyz
    dof rx ry rz
  end
  begin
    id 21
    name LeftUpLegDummy
    direction 1 -2.30186e-007 -8.31532e-007
    length 4.04083
    axis 0 0 0 xyz
  end
  begin
    id 22
    name LeftUpLeg
    direction -0.000920097 -1 2.79241e-006
    length 17.4221
    axis -3.48782 0.00143434 -0.0532288 xyz
    dof rx ry rz
  end
  begin
    id 23
    name LeftLeg
    direction -0.000920097 -1 2.7912e-006
    length 17.1239
    axis 3.68162 -0.00806512 -0.0529896 xyz
    dof rx ry rz
  end
  begin
    id 24
    name LeftFoot
    direction -2.57845e-005 -3.987e-007 1
    length 6.72091
    axis 3.02372e-005 -0.00147829 -0.214229 xyz
    dof rx ry rz
  end
  begin
    id 25
    name LeftToes
    direction 0.00813577 -0.00488255 0.999955
    length 3.85048
    axis 3.89895e-005 -0.0014783 -0.214229 xyz
    dof rx ry rz
  end
:hierarchy
  begin
    root RightUpLegDummy SpineDummy LeftUpLegDummy
    RightUpLegDummy RightUpLeg
    RightUpLeg RightLeg
    RightLeg RightFoot
    RightFoot RightToes
    SpineDummy Spine
    Spine Spine1
    Spine1 HEadDummy LeftShoulder1Dummy RightShoulderDummy
    HEadDummy HEad
    LeftShoulder1Dummy LeftShoulder1
    LeftShoulder1 LeftArm
    LeftArm LeftForeArm
    LeftForeArm LeftHand
    RightShoulderDummy RightShoulder
    RightShoulder RightArm
    RightArm RightForeArm
    RightForeArm RightHand
    LeftUpLegDummy LeftUpLeg
    LeftUpLeg LeftLeg
    LeftLeg LeftFoot
    LeftFoot LeftToes
  end

:SAMPLES-PER-SECOND 30
:FULLY-SPECIFIED
:DEGREES
123
root  -12.3565 32.8258 -14.4698 -139.758 24.3111 -175.552
RightUpLeg  -54.3111 -10.0035 4.24107
RightLeg  71.4685 -0.293457 -0.911582
RightFoot  -2.21094 -0.00628749 0.248422
RightToes  -17.2596 -0.066715 -0.154432
Spine  6.85595 -2.98071 -4.77698
Spine1  13.7574 -5.73893 -8.46678
HEad  -43.4282 9.09106 -26.7771
LeftShoulder1  -1.94126e-019 -3.10601e-018 -2.51263e-017
LeftArm  -35.47 -8.47904 -48.5845
LeftForeArm  21.88 -30.8024 -5.41528
LeftHand  -0.365541 0.0538257 8.01144
RightShoulder  -4.96962e-017 0 -2.36833e-017
RightArm  -45.6591 -46.9221 67.633
RightForeArm  50.6013 26.6353 4.54819
RightHand  -0.407261 -0.216726 -9.1643
LeftUpLeg  -53.7273 11.0918 -3.07866
LeftLeg  44.5086 8.20815 7.02455
LeftFoot  -15.4845 -0.390806 -2.71237
LeftToes  -6.41576 1.31378e-006 1.14341e-007
124
root  -12.0282 33.7079 -16.3585 -137.813 22.33 -174.912
RightUpLeg  -62.7394 -10.7862 12.3668
RightLeg  62.5028 0.578732 0.849502
RightFoot  -3.62351 -0.0135572 0.120396
RightToes  -20.7508 -0.0856838 -0.182832
Spine  7.49887 -3.32525 -3.44561
Spine1  14.9997 -6.65116 -5.80676
HEad  -44.6056 8.83826 -25.7065
LeftShoulder1  -1.94126e-019 -3.10601e-018 -2.51263e-017
LeftArm  -28.6835 -6.75727 -53.5847
LeftForeArm  27.1107 -34.9347 -6.14518
LeftHand  -0.303704 -2.50657 4.6777
RightShoulder  -4.96962e-017 0 -2.36833e-017
RightArm  -35.8414 -44.6546 65.5789
RightForeArm  50.192 30.3009 4.1702
RightHand  -0.333285 0.343316 -6.81837
LeftUpLeg  -50.4532 11.6289 -2.56102
LeftLeg  39.4126 6.35705 4.54783
LeftFoot  -10.067 -0.118835 -1.18762
LeftToes  -15.804 1.31378e-006 1.14341e-007
125
root  -11.6731 34.4183 -18.4251 -136.975 19.5641 -175.425
RightUpLeg  -68.757 -11.1398 19.2251
RightLeg  49.4492 1.71055 1.70925
RightFoot  -3.23179 -0.0149195 0.0105668
RightToes  -25.0719 -0.111499 -0.216298
Spine  8.19953 -3.82516 -1.86496
Spine1  16.2985 -7.94709 -2.64035
HEad  -46.0673 8.03178 -24.269
LeftShoulder1  -1.94126e-019 -3.10601e-018 -2.51263e-017
LeftArm  -22.2447 -4.35536 -59.3085
LeftForeArm  31.4632 -40.033 -7.29542
LeftHand  -0.358519 -3.83746 4.77708
RightShoulder  -4.96962e-017 0 -2.36833e-017
RightArm  -28.2376 -43.5558 62.3131
RightForeArm  51.0657 35.077 5.0064
RightHand  -0.33043 1.40543 -5.79014
LeftUpLeg  -47.739 12.269 -2.70507
LeftLeg  36.3971 3.16675 2.02655
LeftFoot  -2.79516 -0.00464032 -0.0286905
LeftToes  -31.7877 1.31378e-006 1.14341e-007
126
root  -11.2182 34.6325 -20.7622 -137.035 17.5042 -176.499
RightUpLeg  -71.351 -9.78555 22.3093
RightLeg  33.7376 3.65515 2.09841
RightFoot  -1.06029 -0.00479652 0.028678
RightToes  -32.0857 -0.158544 -0.266198
Spine  8.6889 -4.15812 -0.328525
Spine1  17.1598 -8.84129 0.352962
HEad  -47.1874 7.43819 -22.2186
LeftShoulder1  -1.94126e-019 -3.10601e-018 -2.51263e-017
LeftArm  -19.1621 -1.11049 -65.88
LeftForeArm  35.2725 -44.2328 -8.3805
LeftHand  -0.449663 -5.05635 5.30017
RightShoulder  -4.96962e-017 0 -2.36833e-017
RightArm  -23.2584 -43.3352 58.1416
RightForeArm  49.1587 39.2481 6.14969
RightHand  -0.377267 1.44572 -6.55533
LeftUpLeg  -44.6622 13.9295 -3.18049
LeftLeg  37.338 0.260646 0.167562
LeftFoot  3.28502 0.000781582 0.134258
LeftToes  -43.7485 1.31378e-006 1.14341e-007
127
root  -10.6629 34.1239 -23.4518 -139.863 16.2876 -178.101
RightUpLeg  -70.3069 -7.69732 19.428
RightLeg  22.1052 4.69242 1.55787
RightFoot  -1.68755 -0.008553 -0.0521927
RightToes  -32.8101 -0.163743 -0.271015
Spine  9.12247 -4.31321 0.850947
Spine1  17.9485 -9.32057 2.62427
HEad  -44.9268 6.22137 -19.0275
LeftShoulder1  -1.94126e-019 -3.10601e-018 -2.51263e-017
LeftArm  -17.161 2.68391 -72.4057
LeftForeArm  36.6889 -45.5597 -8.74336
LeftHand  -0.53056 -5.29734 6.07094
RightShoulder  -4.96962e-017 0 -2.36833e-017
RightArm  -22.3723 -44.0257 54.1003
RightForeArm  46.4382 43.0933 7.40193
RightHand  -0.387877 1.31017 -6.86057
LeftUpLeg  -38.2357 15.9097 -2.46899
LeftLeg  42.7438 2.62386 2.12057
LeftFoot  8.53739 -0.0305918 0.57137
LeftToes  -38.1208 1.31378e-006 1.14341e-007
128
root  -9.96074 32.9353 -26.3746 -144.675 14.7891 -179.598
RightUpLeg  -67.8883 -5.73649 13.6498
RightLeg  19.3194 3.03445 0.847191
RightFoot  -2.88527 -0.014593 -0.0461584
RightToes  -34.1563 -0.173564 -0.27979
Spine  8.94991 -4.46473 1.63933
Spine1  17.6269 -9.62335 3.96251
HEad  -39.8725 4.92913 -15.1695
LeftShoulder1  -1.94126e-019 -3.10601e-018 -2.51263e-017
LeftArm  -17.6924 8.2512 -77.9364
LeftForeArm  36.972 -45.6491 -8.77025
LeftHand  -0.553331 -5.89864 6.01235
RightShoulder  -4.96962e-017 0 -2.36833e-017
RightArm  -23.6886 -45.5065 50.8085
RightForeArm  44.7952 44.862 8.05875
RightHand  -0.394774 1.19019 -7.0973
LeftUpLeg  -28.8953 16.2855 1.17284
LeftLeg  50.8882 7.21141 7.71246
LeftFoot  8.77372 -0.116727 1.68302
LeftToes  -25.4539 1.31378e-006 1.14341e-007
129
root  -9.25488 31.3741 -29.2135 -148.942 12.235 179.064
RightUpLeg  -67.5976 -5.74411 10.1537
RightLeg  26.6883 3.44973 1.45691
RightFoot  13.5928 -0.0480203 0.919738
RightToes  -11.8556 -0.0408564 -0.108338
Spine  7.99002 -4.78565 2.50343
Spine1  15.7108 -10.2151 5.48316
HEad  -36.103 2.07867 -11.272
LeftShoulder1  -1.94126e-019 -3.10601e-018 -2.51263e-017
LeftArm  -19.8299 15.0612 -82.6977
LeftForeArm  35.6538 -46.4091 -9.15865
LeftHand  -0.629615 -5.56083 6.98604
RightShoulder  -4.96962e-017 0 -2.36833e-017
RightArm  -26.6284 -47.184 47.7774
RightForeArm  43.9632 45.2462 8.23223
RightHand  -0.38714 0.460165 -7.76372
LeftUpLeg  -21.3566 11.9043 5.99052
LeftLeg  60.7467 7.91107 11.9823
LeftFoot  5.97012 -0.0746661 1.59334
LeftToes  -19.663 1.31378e-006 1.14341e-007
130
root  -8.68597 30.0576 -31.5925 -153.012 9.65097 178.946
RightUpLeg  -72.2007 -7.41794 9.18004
RightLeg  49.6361 1.06243 1.05065
RightFoot  2.1522 0.00737859 0.126837
RightToes  1.46168 0.00346044 0.0138752
Spine  7.69486 -4.64565 3.42921
Spine1  15.0402 -10.0268 7.31494
HEad  -36.3229 -1.89237 -7.54566
LeftShoulder1  -1.94126e-019 -3.10601e-018 -2.51263e-017
LeftArm  -21.1434 19.1817 -86.2109
LeftForeArm  33.0422 -47.2556 -9.66442
LeftHand  -0.688063 -4.02447 8.75015
RightShoulder  -4.96962e-017 0 -2.36833e-017
RightArm  -33.3861 -46.0951 47.5949
RightForeArm  42.6819 43.7609 7.81776
RightHand  -0.401195 -0.628365 -9.7661
LeftUpLeg  -18.5264 2.3359 9.55089
LeftLeg  72.8665 4.99062 12.8671
LeftFoot  4.91474 -0.0474841 1.26797
LeftToes  -15.4621 1.31378e-006 1.14341e-007
131
root  -7.99621 29.2501 -33.5768 -153.871 10.0254 -179.01
RightUpLeg  -72.2703 -7.01531 11.5331
RightLeg  58.8373 0.883636 1.18412
RightFoot  -5.40317 -0.029838 -0.0998781
RightToes  3.54884 0.00778575 0.0338309
Spine  8.06925 -3.61331 4.20875
Spine1  15.7261 -8.21321 9.04927
HEad  -41.918 -4.63006 -2.60894
LeftShoulder1  -1.94126e-019 -3.10601e-018 -2.51263e-017
LeftArm  -21.4787 20.2255 -88.096
LeftForeArm  27.7566 -47.1437 -9.98737
LeftHand  -0.719646 -2.20743 11.1898
RightShoulder  -4.96962e-017 0 -2.36833e-017
RightArm  -42.2828 -37.6993 50.2803
RightForeArm  40.35 34.1554 5.23697
RightHand  -0.353365 -2.39364 -13.4214
LeftUpLeg  -22.0017 -1.84124 12.6045
LeftLeg  85.7651 1.96447 13.7894
LeftFoot  0.941424 -0.000470804 0.218856
LeftToes  -5.61728 1.31378e-006 1.14341e-007
132
root  -7.31249 28.8571 -35.2373 -154.745 9.9744 -178.339
RightUpLeg  -70.4783 -5.88464 11.5598
RightLeg  63.8576 0.0355467 -0.0542828
RightFoot  -10.9397 -0.059594 -0.0865825
RightToes  3.5835 0.0100666 0.0341636
Spine  8.34713 -3.09574 4.41517
Spine1  16.2606 -7.43125 9.5265
HEad  -44.5995 -6.83986 4.07972
LeftShoulder1  -1.94126e-019 -3.10601e-018 -2.51263e-017
LeftArm  -22.2873 18.9729 -88.2304
LeftForeArm  24.3376 -43.817 -9.00071
LeftHand  -0.722416 -1.48879 12.349
RightShoulder  -4.96962e-017 0 -2.36833e-017
RightArm  -52.6563 -23.9454 53.1911
RightForeArm  41.7709 18.5989 1.89194
RightHand  -0.183274 -4.31553 -18.728
LeftUpLeg  -29.1011 -2.6396 14.4769
LeftLeg  96.425 -0.799506 16.4038
LeftFoot  -3.42673 -0.0417614 -1.23447
LeftToes  3.40158 1.31378e-006 1.14341e-007
133
root  -6.85501 28.8457 -36.4835 -154.643 11.0595 -177.3
RightUpLeg  -68.972 -5.32317 12.7047
RightLeg  65.9322 0.217931 0.281305
RightFoot  -13.2862 -0.0973643 -0.305104
RightToes  4.95242 0.0112223 0.0473335
Spine  8.46781 -1.77575 4.68332
Spine1  16.6439 -4.65075 9.51381
HEad  -46.0909 -7.37454 8.72863
LeftShoulder1  -1.94126e-019 -3.10601e-018 -2.51263e-017
LeftArm  -22.7852 17.8896 -87.755
LeftForeArm  24.1552 -42.3109 -8.50544
LeftHand  -0.65361 -1.95965 10.51
RightShoulder  -4.96962e-017 0 -2.36833e-017
RightArm  -65.5188 -12.3284 55.5636
RightForeArm  48.0035 10.0789 1.58575
RightHand  0.589926 -8.56127 -21.845
LeftUpLeg  -39.3949 0.229957 15.0096
LeftLeg  103.133 -2.74913 16.1201
LeftFoot  -7.98099 -0.199923 -2.70371
LeftToes  9.06436 1.31378e-006 1.14341e-007
134
root  -6.68792 29.1282 -37.693 -154.467 12.4029 -178.287
RightUpLeg  -67.3971 -6.93976 12.4412
RightLeg  66.3205 1.08876 1.96665
RightFoot  -14.9759 -0.172819 -0.793622
RightToes  5.16386 0.0106321 0.0493727
Spine  8.8846 0.0170258 4.25387
Spine1  17.6854 -0.443062 7.86884
HEad  -46.8508 -8.26756 10.5347
LeftShoulder1  -1.94126e-019 -3.10601e-018 -2.51263e-017
LeftArm  -21.1719 14.8257 -86.3632
LeftForeArm  23.4187 -40.5822 -7.998
LeftHand  -0.541996 -2.17126 8.5211
RightShoulder  -4.96962e-017 0 -2.36833e-017
RightArm  -57.5366 -4.6065 58.5942
RightForeArm  38.7367 9.8081 1.61476
RightHand  0.81624 -12.1589 -14.4846
LeftUpLeg  -51.0724 3.13714 10.947
LeftLeg  103.653 -2.76729 15.4006
LeftFoot  -10.139 -0.289167 -3.09719
LeftToes  8.23265 1.31378e-006 1.14341e-007
135
root  -6.63686 29.5628 -38.9574 -154.574 14.0856 179.405
RightUpLeg  -66.2589 -8.47189 10.3202
RightLeg  67.0617 1.62913 3.10396
RightFoot  -14.8978 -0.202498 -1.03283
RightToes  2.81286 0.00634357 0.0267762
Spine  9.50284 2.08905 3.28811
Spine1  18.9165 4.68518 5.13212
HEad  -47.2631 -10.2487 10.6593
LeftShoulder1  -1.94126e-019 -3.10601e-018 -2.51263e-017
LeftArm  -19.5128 11.8122 -84.8283
LeftForeArm  25.9204 -40.398 -7.775
LeftHand  -0.515004 -2.89315 7.44873
RightShoulder  -4.96962e-017 0 -2.36833e-017
RightArm  -40.4912 0.241672 60.5944
RightForeArm  41.8923 15.5165 1.47838
RightHand  -0.0416043 -4.11735 -1.87588
LeftUpLeg  -61.2773 4.59918 4.33682
LeftLeg  97.3641 -0.921907 14.1625
LeftFoot  -12.4291 -0.364992 -3.18939
LeftToes  5.96214 1.31378e-006 1.14341e-007
